<mxfile host="app.diagrams.net" agent="Mozilla/5.0 (Windows NT 10.0; Win64; x64) AppleWebKit/537.36 (KHTML, like Gecko) Chrome/127.0.0.0 Safari/537.36" version="24.7.7">
  <diagram name="Page-1" id="QsMJAti0Bt9sfOSY86jO">
    <mxGraphModel dx="1050" dy="530" grid="1" gridSize="10" guides="1" tooltips="1" connect="1" arrows="1" fold="1" page="1" pageScale="1" pageWidth="1654" pageHeight="1169" math="0" shadow="0">
      <root>
        <mxCell id="0" />
        <mxCell id="1" parent="0" />
        <mxCell id="9l524XbITH2KFDObZAWD-1" value="" style="group" vertex="1" connectable="0" parent="1">
          <mxGeometry x="390" y="150" width="590" height="250" as="geometry" />
        </mxCell>
        <mxCell id="9l524XbITH2KFDObZAWD-2" value="" style="group" vertex="1" connectable="0" parent="9l524XbITH2KFDObZAWD-1">
          <mxGeometry x="-101.14285714285714" width="691.1428571428571" height="250" as="geometry" />
        </mxCell>
        <mxCell id="9l524XbITH2KFDObZAWD-3" value="" style="rounded=1;whiteSpace=wrap;html=1;strokeColor=#0070F2;fillColor=#EBF8FF;arcSize=32;absoluteArcSize=1;imageWidth=64;imageHeight=64;strokeWidth=1.5;" vertex="1" parent="9l524XbITH2KFDObZAWD-2">
          <mxGeometry width="691.1428571428571" height="250" as="geometry" />
        </mxCell>
        <mxCell id="9l524XbITH2KFDObZAWD-4" value="" style="shape=image;verticalLabelPosition=bottom;labelBackgroundColor=default;verticalAlign=top;aspect=fixed;imageAspect=0;image=data:image/svg+xml,PHN2ZyB4bWxuczp4bGluaz0iaHR0cDovL3d3dy53My5vcmcvMTk5OS94bGluayIgeG1sbnM9Imh0dHA6Ly93d3cudzMub3JnLzIwMDAvc3ZnIiB2aWV3Qm94PSIwIDAgMTQ0Ljc0NyAzOS44MzIiIGlkPSJhIj48ZGVmcz48bGluZWFyR3JhZGllbnQgZ3JhZGllbnRVbml0cz0idXNlclNwYWNlT25Vc2UiIHkyPSIzOS44MzIiIHgyPSI0MC4yNTgiIHkxPSIwIiB4MT0iNDAuMjU4IiBpZD0iYiI+PHN0b3Agc3RvcC1jb2xvcj0iIzAwYjhmMSIgb2Zmc2V0PSIwIi8+PHN0b3Agc3RvcC1jb2xvcj0iIzAwYjVlZiIgb2Zmc2V0PSIuMDE2Ii8+PHN0b3Agc3RvcC1jb2xvcj0iIzBkOTBkOCIgb2Zmc2V0PSIuMzA4Ii8+PHN0b3Agc3RvcC1jb2xvcj0iIzE2NzVjOCIgb2Zmc2V0PSIuNTc4Ii8+PHN0b3Agc3RvcC1jb2xvcj0iIzFjNjRiZSIgb2Zmc2V0PSIuODE3Ii8+PHN0b3Agc3RvcC1jb2xvcj0iIzFlNWZiYiIgb2Zmc2V0PSIxIi8+PC9saW5lYXJHcmFkaWVudD48L2RlZnM+PHBvbHlsaW5lIGZpbGwtcnVsZT0iZXZlbm9kZCIgZmlsbD0idXJsKCNiKSIgcG9pbnRzPSIwIDM5LjgzMiA0MC42OTIgMzkuODMyIDgwLjUxNyAwIDAgMCAwIDM5LjgzMiIvPjxwYXRoIGZpbGwtcnVsZT0iZXZlbm9kZCIgZmlsbD0iI2ZmZiIgZD0ibTQ3Ljc4Miw3LjQ4OWwtNy45MjUtLjAwNXYxOC44NDVsLTYuOTI0LTE4Ljg0NWgtNi44NjVsLTUuOTEyLDE1Ljc1OWMtLjYzLTMuOTczLTQuNzQtNS4zNDUtNy45NzQtNi4zNzQtMi4xMzUtLjY4Ni00LjQwMS0xLjY5NC00LjM4LTIuODA5LjAxNy0uOTE1LDEuMjE1LTEuNzY1LDMuNTg5LTEuNjM3LDEuNTk1LjA4NCwzLjAwMS4yMTMsNS44LDEuNTYzbDIuNzUzLTQuNzk1Yy0yLjU1NS0xLjMtNi4wODYtMi4xMjEtOC45NzgtMi4xMjRoLS4wMTdjLTMuMzc0LDAtNi4xODUsMS4wOTMtNy45MjgsMi44OTQtMS4yMTQsMS4yNTgtMS44NjksMi44NTYtMS44OTYsNC42MjMtLjA0NCwyLjQzMi44NDgsNC4xNTcsMi43MjEsNS41MzMsMS41ODMsMS4xNiwzLjYwNiwxLjkxMiw1LjM5LDIuNDY1LDIuMjAxLjY4MSwzLjk5NiwxLjI3NCwzLjk3NSwyLjUzOS0uMDE2LjQ1OS0uMTkxLjg4OC0uNTIxLDEuMjM2LS41NDguNTY2LTEuMzkxLjc3OS0yLjU1NS43OTktMi4yNDQuMDQ4LTMuOTEtLjMwMy02LjU2Mi0xLjg3bC0yLjQ0OCw0Ljg2MWMyLjY0NCwxLjUwNiw1Ljc3NiwyLjM4OCw4Ljk3MiwyLjM4OGwuNDExLS4wMDZjMi43ODItLjA1LDUuMDI2LS44NDIsNi44Mi0yLjI4Ni4xMDMtLjA4MS4xOTYtLjE2Ni4yOTEtLjI1bC0uNzk1LDIuMTIzaDcuMmwxLjIwOC0zLjY3NGMxLjI2NS40MzMsMi43MDQuNjcxLDQuMjMyLjY3MSwxLjQ4NywwLDIuODg5LS4yMjksNC4xMzEtLjYzNWwxLjE2NCwzLjYzN2gxMS43NDJ2LTcuNjA3aDIuNTYxYzYuMTg4LDAsOS44NTEtMy4xNTQsOS44NTEtOC40MzYsMC01Ljg4NS0zLjU1Ny04LjU4NS0xMS4xMzItOC41ODVabS0xOC4zMTcsMTYuMTI0Yy0uOTI1LDAtMS43OTItLjE2LTIuNTM5LS40NDNsMi41MTItNy45MjZoLjA0OGwyLjQ2OCw3Ljk0OGMtLjc0Mi4yNjMtMS41ODkuNDIxLTIuNDg4LjQyMVptMTguNzgzLTQuNTUzaC0xLjc0NnYtNi4zODZoMS43NDZjMi4zMjgsMCw0LjE4NS43NzMsNC4xODUsMy4xNTEsMCwyLjQ2MS0xLjg1NywzLjIzNi00LjE4NSwzLjIzNiIvPjxwYXRoIGZpbGw9IiMwMDJhODYiIGQ9Im04MC4yMTcsNy40MDFoMTAuMDYzYzUuNTk1LDAsOC42NzQsMS45MTcsOC42NzQsNi4xNTgsMCwyLjkwMy0xLjUxMyw1LjAxNC00LjMxMSw1LjcsMy4yOS40NTgsNS4yNzgsMi41ODYsNS4yNzgsNS44OTQsMCw1LjAxNC00LjA2NCw3LjAzNy05LjE4NCw3LjAzN2gtMTAuNTIxVjcuNDAxWm0xMy45NjksNi44MjZjMC0yLjE2NC0xLjQ5Ni0yLjk3My00LjI0LTIuOTczaC01LjA0OXY2LjI5OGg0Ljg5MWMzLjIwMiwwLDQuMzk4LTEuMTYxLDQuMzk4LTMuMzI1Wm0xLjAyMSwxMC41MjFjMC0yLjM1Ny0xLjc3Ny0zLjQ2Ni00LjgzOS0zLjQ2NmgtNS40NzF2Ny4wNTVoNS41MDZjMi44MTUsMCw0LjgwNC0uNzc0LDQuODA0LTMuNTg5WiIvPjxwYXRoIGZpbGw9IiMwMDJhODYiIGQ9Im0xMDkuMDUxLDExLjVoLTcuNTgzdi00LjA5OWgxOS44NDZ2NC4wOTloLTcuNTY1djIwLjY5aC00LjY5N1YxMS41WiIvPjxwYXRoIGZpbGw9IiMwMDJhODYiIGQ9Im0xMjUuMTQ4LDcuNDAxaDEwLjUwNGM2LjE5MiwwLDkuMDk2LDMuMTg1LDkuMDk2LDcuODk5LDAsNC4zOTgtMi44MzMsOC4xNDYtOC44NSw4LjE0NmgtNi4wN3Y4Ljc0NGgtNC42OFY3LjQwMVptMTQuOTAyLDcuOTUyYzAtMi41NTEtMS42ODktMy45MjMtNC45NDQtMy45MjNoLTUuMjc4djguMDRoNS40MTljMy4yNzIsMCw0LjgwNC0xLjU4Myw0LjgwNC00LjExN1oiLz48L3N2Zz4=;strokeWidth=1.5;" vertex="1" parent="9l524XbITH2KFDObZAWD-2">
          <mxGeometry x="11.14631944444433" y="10.000000000000068" width="67.25" height="18.55" as="geometry" />
        </mxCell>
        <mxCell id="9l524XbITH2KFDObZAWD-20" value="" style="group" vertex="1" connectable="0" parent="9l524XbITH2KFDObZAWD-2">
          <mxGeometry x="271.1428571428571" y="110" width="130" height="90" as="geometry" />
        </mxCell>
        <mxCell id="9l524XbITH2KFDObZAWD-16" value="" style="rounded=1;whiteSpace=wrap;html=1;strokeColor=#07838f;fillColor=#dafdf5;arcSize=24;absoluteArcSize=1;imageWidth=64;imageHeight=64;strokeWidth=1.5;" vertex="1" parent="9l524XbITH2KFDObZAWD-20">
          <mxGeometry width="130" height="90" as="geometry" />
        </mxCell>
        <mxCell id="9l524XbITH2KFDObZAWD-17" value="&lt;font face=&quot;arial&quot; style=&quot;font-size: 16px;&quot;&gt;&lt;b style=&quot;font-size: 16px;&quot;&gt;HCQ&lt;/b&gt;&lt;/font&gt;" style="text;html=1;align=left;verticalAlign=middle;resizable=0;points=[];autosize=1;strokeColor=none;fillColor=none;fontSize=12;fontColor=#1d2d3e;fontFamily=Helvetica;" vertex="1" parent="9l524XbITH2KFDObZAWD-20">
          <mxGeometry x="40" y="15" width="60" height="30" as="geometry" />
        </mxCell>
        <mxCell id="9l524XbITH2KFDObZAWD-18" value="" style="shape=image;verticalLabelPosition=bottom;labelBackgroundColor=default;verticalAlign=top;aspect=fixed;imageAspect=0;image=data:image/svg+xml,PHN2ZyB4bWxuczp4bGluaz0iaHR0cDovL3d3dy53My5vcmcvMTk5OS94bGluayIgeG1sbnM9Imh0dHA6Ly93d3cudzMub3JnLzIwMDAvc3ZnIiB2aWV3Qm94PSIwIDAgNDEyLjM4IDIwNCIgZGF0YS1uYW1lPSJMYXllciAxIiBpZD0iTGF5ZXJfMSI+PGRlZnM+PHN0eWxlPi5jbHMtMSwuY2xzLTJ7ZmlsbC1ydWxlOmV2ZW5vZGQ7fS5jbHMtMXtmaWxsOnVybCgjbGluZWFyLWdyYWRpZW50KTt9LmNscy0ye2ZpbGw6I2ZmZjt9PC9zdHlsZT48bGluZWFyR3JhZGllbnQgZ3JhZGllbnRVbml0cz0idXNlclNwYWNlT25Vc2UiIHkyPSIyMDQiIHgyPSIyMDYuMTkiIHgxPSIyMDYuMTkiIGlkPSJsaW5lYXItZ3JhZGllbnQiPjxzdG9wIHN0b3AtY29sb3I9IiMwMGI4ZjEiIG9mZnNldD0iMCIvPjxzdG9wIHN0b3AtY29sb3I9IiMwMWI2ZjAiIG9mZnNldD0iMC4wMiIvPjxzdG9wIHN0b3AtY29sb3I9IiMwZDkwZDkiIG9mZnNldD0iMC4zMSIvPjxzdG9wIHN0b3AtY29sb3I9IiMxNzc1YzgiIG9mZnNldD0iMC41OCIvPjxzdG9wIHN0b3AtY29sb3I9IiMxYzY1YmYiIG9mZnNldD0iMC44MiIvPjxzdG9wIHN0b3AtY29sb3I9IiMxZTVmYmIiIG9mZnNldD0iMSIvPjwvbGluZWFyR3JhZGllbnQ+PC9kZWZzPjx0aXRsZT5TQVBfZ3JhZF9SX3Njcm5fWmVpY2hlbmZsw6RjaGUgMTwvdGl0bGU+PHBvbHlsaW5lIHBvaW50cz0iMCAyMDQgMjA4LjQxIDIwNCA0MTIuMzggMCAwIDAgMCAyMDQiIGNsYXNzPSJjbHMtMSIvPjxwYXRoIGQ9Ik0yNDQuNzMsMzguMzZsLTQwLjYsMHY5Ni41MkwxNjguNjcsMzguMzNIMTMzLjUxbC0zMC4yNyw4MC43MkMxMDAsOTguNyw3OSw5MS42Nyw2Mi40LDg2LjQsNTEuNDYsODIuODksMzkuODUsNzcuNzIsNDAsNzJjLjA5LTQuNjgsNi4yMy05LDE4LjM4LTguMzgsOC4xNy40MywxNS4zNywxLjA5LDI5LjcxLDhsMTQuMS0yNC41NUM4OS4wNiw0MC40Miw3MSwzNi4yMSw1Ni4xNywzNi4xOWgtLjA5Yy0xNy4yOCwwLTMxLjY4LDUuNi00MC42LDE0LjgzQTM0LjIzLDM0LjIzLDAsMCwwLDUuNzcsNzQuN0M1LjU0LDg3LjE1LDEwLjExLDk2LDE5LjcxLDEwM2M4LjEsNS45NCwxOC40Niw5Ljc5LDI3LjYsMTIuNjIsMTEuMjcsMy40OSwyMC40Nyw2LjUzLDIwLjM2LDEzQTkuNTcsOS41NywwLDAsMSw2NSwxMzVjLTIuODEsMi45LTcuMTMsNC0xMy4wOSw0LjEtMTEuNDkuMjQtMjAtMS41Ni0zMy42MS05LjU5TDUuNzcsMTU0LjQyYTkzLjc3LDkzLjc3LDAsMCwwLDQ2LDEyLjIybDIuMTEsMGMxNC4yNC0uMjUsMjUuNzQtNC4zMSwzNC45Mi0xMS43MS41My0uNDEsMS0uODQsMS40OS0xLjI4TDg2LjE3LDE2NC41SDEyM2w2LjE5LTE4LjgyYTY3LjQ2LDY3LjQ2LDAsMCwwLDIxLjY4LDMuNDMsNjguMzMsNjguMzMsMCwwLDAsMjEuMTYtMy4yNWw2LDE4LjY0aDYwLjE0di0zOWgxMy4xMWMzMS43MSwwLDUwLjQ2LTE2LjE1LDUwLjQ2LTQzLjJDMzAxLjc0LDUyLjE5LDI4My41MiwzOC4zNiwyNDQuNzMsMzguMzZaTTE1MC45MSwxMjFhMzYuOTMsMzYuOTMsMCwwLDEtMTMtMi4yOGwxMi44Ny00MC41OUgxNTFsMTIuNjUsNDAuNzFBMzguNSwzOC41LDAsMCwxLDE1MC45MSwxMjFabTk2LjItMjMuMzNoLTguOTRWNjQuOTFoOC45NGMxMS45MywwLDIxLjQ0LDQsMjEuNDQsMTYuMTQsMCwxMi42LTkuNTEsMTYuNTctMjEuNDQsMTYuNTciIGNsYXNzPSJjbHMtMiIvPjwvc3ZnPg==;" vertex="1" parent="9l524XbITH2KFDObZAWD-20">
          <mxGeometry x="12.539999999999964" y="55.73000000000002" width="37.46" height="18.55" as="geometry" />
        </mxCell>
        <mxCell id="9l524XbITH2KFDObZAWD-19" value="&lt;font color=&quot;#0070f2&quot; face=&quot;arial&quot; style=&quot;font-size: 16px;&quot;&gt;&lt;b style=&quot;font-size: 16px;&quot;&gt;HANA&lt;/b&gt;&lt;/font&gt;" style="text;html=1;align=left;verticalAlign=middle;resizable=0;points=[];autosize=1;strokeColor=none;fillColor=none;fontSize=12;fontColor=#1d2d3e;fontFamily=Helvetica;" vertex="1" parent="9l524XbITH2KFDObZAWD-20">
          <mxGeometry x="50" y="50.00000000000023" width="70" height="30" as="geometry" />
        </mxCell>
        <mxCell id="9l524XbITH2KFDObZAWD-21" value="" style="group" vertex="1" connectable="0" parent="9l524XbITH2KFDObZAWD-2">
          <mxGeometry x="531.14" y="110" width="120" height="90" as="geometry" />
        </mxCell>
        <mxCell id="9l524XbITH2KFDObZAWD-12" value="" style="rounded=1;whiteSpace=wrap;html=1;strokeColor=#07838f;fillColor=#dafdf5;arcSize=24;absoluteArcSize=1;imageWidth=64;imageHeight=64;strokeWidth=1.5;" vertex="1" parent="9l524XbITH2KFDObZAWD-21">
          <mxGeometry width="120" height="90" as="geometry" />
        </mxCell>
        <mxCell id="9l524XbITH2KFDObZAWD-13" value="&lt;font face=&quot;arial&quot; style=&quot;font-size: 16px;&quot;&gt;&lt;b style=&quot;font-size: 16px;&quot;&gt;HCP&lt;/b&gt;&lt;/font&gt;" style="text;html=1;align=left;verticalAlign=middle;resizable=0;points=[];autosize=1;strokeColor=none;fillColor=none;fontSize=12;fontColor=#1d2d3e;fontFamily=Helvetica;" vertex="1" parent="9l524XbITH2KFDObZAWD-21">
          <mxGeometry x="29.998571428571495" y="15" width="60" height="30" as="geometry" />
        </mxCell>
        <mxCell id="9l524XbITH2KFDObZAWD-14" value="" style="shape=image;verticalLabelPosition=bottom;labelBackgroundColor=default;verticalAlign=top;aspect=fixed;imageAspect=0;image=data:image/svg+xml,PHN2ZyB4bWxuczp4bGluaz0iaHR0cDovL3d3dy53My5vcmcvMTk5OS94bGluayIgeG1sbnM9Imh0dHA6Ly93d3cudzMub3JnLzIwMDAvc3ZnIiB2aWV3Qm94PSIwIDAgNDEyLjM4IDIwNCIgZGF0YS1uYW1lPSJMYXllciAxIiBpZD0iTGF5ZXJfMSI+PGRlZnM+PHN0eWxlPi5jbHMtMSwuY2xzLTJ7ZmlsbC1ydWxlOmV2ZW5vZGQ7fS5jbHMtMXtmaWxsOnVybCgjbGluZWFyLWdyYWRpZW50KTt9LmNscy0ye2ZpbGw6I2ZmZjt9PC9zdHlsZT48bGluZWFyR3JhZGllbnQgZ3JhZGllbnRVbml0cz0idXNlclNwYWNlT25Vc2UiIHkyPSIyMDQiIHgyPSIyMDYuMTkiIHgxPSIyMDYuMTkiIGlkPSJsaW5lYXItZ3JhZGllbnQiPjxzdG9wIHN0b3AtY29sb3I9IiMwMGI4ZjEiIG9mZnNldD0iMCIvPjxzdG9wIHN0b3AtY29sb3I9IiMwMWI2ZjAiIG9mZnNldD0iMC4wMiIvPjxzdG9wIHN0b3AtY29sb3I9IiMwZDkwZDkiIG9mZnNldD0iMC4zMSIvPjxzdG9wIHN0b3AtY29sb3I9IiMxNzc1YzgiIG9mZnNldD0iMC41OCIvPjxzdG9wIHN0b3AtY29sb3I9IiMxYzY1YmYiIG9mZnNldD0iMC44MiIvPjxzdG9wIHN0b3AtY29sb3I9IiMxZTVmYmIiIG9mZnNldD0iMSIvPjwvbGluZWFyR3JhZGllbnQ+PC9kZWZzPjx0aXRsZT5TQVBfZ3JhZF9SX3Njcm5fWmVpY2hlbmZsw6RjaGUgMTwvdGl0bGU+PHBvbHlsaW5lIHBvaW50cz0iMCAyMDQgMjA4LjQxIDIwNCA0MTIuMzggMCAwIDAgMCAyMDQiIGNsYXNzPSJjbHMtMSIvPjxwYXRoIGQ9Ik0yNDQuNzMsMzguMzZsLTQwLjYsMHY5Ni41MkwxNjguNjcsMzguMzNIMTMzLjUxbC0zMC4yNyw4MC43MkMxMDAsOTguNyw3OSw5MS42Nyw2Mi40LDg2LjQsNTEuNDYsODIuODksMzkuODUsNzcuNzIsNDAsNzJjLjA5LTQuNjgsNi4yMy05LDE4LjM4LTguMzgsOC4xNy40MywxNS4zNywxLjA5LDI5LjcxLDhsMTQuMS0yNC41NUM4OS4wNiw0MC40Miw3MSwzNi4yMSw1Ni4xNywzNi4xOWgtLjA5Yy0xNy4yOCwwLTMxLjY4LDUuNi00MC42LDE0LjgzQTM0LjIzLDM0LjIzLDAsMCwwLDUuNzcsNzQuN0M1LjU0LDg3LjE1LDEwLjExLDk2LDE5LjcxLDEwM2M4LjEsNS45NCwxOC40Niw5Ljc5LDI3LjYsMTIuNjIsMTEuMjcsMy40OSwyMC40Nyw2LjUzLDIwLjM2LDEzQTkuNTcsOS41NywwLDAsMSw2NSwxMzVjLTIuODEsMi45LTcuMTMsNC0xMy4wOSw0LjEtMTEuNDkuMjQtMjAtMS41Ni0zMy42MS05LjU5TDUuNzcsMTU0LjQyYTkzLjc3LDkzLjc3LDAsMCwwLDQ2LDEyLjIybDIuMTEsMGMxNC4yNC0uMjUsMjUuNzQtNC4zMSwzNC45Mi0xMS43MS41My0uNDEsMS0uODQsMS40OS0xLjI4TDg2LjE3LDE2NC41SDEyM2w2LjE5LTE4LjgyYTY3LjQ2LDY3LjQ2LDAsMCwwLDIxLjY4LDMuNDMsNjguMzMsNjguMzMsMCwwLDAsMjEuMTYtMy4yNWw2LDE4LjY0aDYwLjE0di0zOWgxMy4xMWMzMS43MSwwLDUwLjQ2LTE2LjE1LDUwLjQ2LTQzLjJDMzAxLjc0LDUyLjE5LDI4My41MiwzOC4zNiwyNDQuNzMsMzguMzZaTTE1MC45MSwxMjFhMzYuOTMsMzYuOTMsMCwwLDEtMTMtMi4yOGwxMi44Ny00MC41OUgxNTFsMTIuNjUsNDAuNzFBMzguNSwzOC41LDAsMCwxLDE1MC45MSwxMjFabTk2LjItMjMuMzNoLTguOTRWNjQuOTFoOC45NGMxMS45MywwLDIxLjQ0LDQsMjEuNDQsMTYuMTQsMCwxMi42LTkuNTEsMTYuNTctMjEuNDQsMTYuNTciIGNsYXNzPSJjbHMtMiIvPjwvc3ZnPg==;" vertex="1" parent="9l524XbITH2KFDObZAWD-21">
          <mxGeometry x="11.138857142857091" y="61.45000000000002" width="37.46" height="18.55" as="geometry" />
        </mxCell>
        <mxCell id="9l524XbITH2KFDObZAWD-15" value="&lt;font color=&quot;#0070f2&quot; face=&quot;arial&quot; style=&quot;font-size: 16px;&quot;&gt;&lt;b style=&quot;font-size: 16px;&quot;&gt;HANA&lt;/b&gt;&lt;/font&gt;" style="text;html=1;align=left;verticalAlign=middle;resizable=0;points=[];autosize=1;strokeColor=none;fillColor=none;fontSize=12;fontColor=#1d2d3e;fontFamily=Helvetica;" vertex="1" parent="9l524XbITH2KFDObZAWD-21">
          <mxGeometry x="49.99571428571426" y="55.720000000000226" width="70" height="30" as="geometry" />
        </mxCell>
        <mxCell id="9l524XbITH2KFDObZAWD-24" value="" style="group" vertex="1" connectable="0" parent="9l524XbITH2KFDObZAWD-2">
          <mxGeometry x="61.14" y="110" width="128.6" height="90" as="geometry" />
        </mxCell>
        <mxCell id="9l524XbITH2KFDObZAWD-5" value="" style="rounded=1;whiteSpace=wrap;html=1;strokeColor=#07838f;fillColor=#dafdf5;arcSize=24;absoluteArcSize=1;imageWidth=64;imageHeight=64;strokeWidth=1.5;" vertex="1" parent="9l524XbITH2KFDObZAWD-24">
          <mxGeometry width="116.29" height="90" as="geometry" />
        </mxCell>
        <mxCell id="9l524XbITH2KFDObZAWD-7" value="&lt;font face=&quot;arial&quot; style=&quot;font-size: 16px;&quot;&gt;&lt;b style=&quot;font-size: 16px;&quot;&gt;HCD&lt;/b&gt;&lt;/font&gt;" style="text;html=1;align=left;verticalAlign=middle;resizable=0;points=[];autosize=1;strokeColor=none;fillColor=none;fontSize=12;fontColor=#1d2d3e;fontFamily=Helvetica;" vertex="1" parent="9l524XbITH2KFDObZAWD-24">
          <mxGeometry x="37.43285714285714" y="15" width="60" height="30" as="geometry" />
        </mxCell>
        <mxCell id="9l524XbITH2KFDObZAWD-11" value="" style="shape=image;verticalLabelPosition=bottom;labelBackgroundColor=default;verticalAlign=top;aspect=fixed;imageAspect=0;image=data:image/svg+xml,PHN2ZyB4bWxuczp4bGluaz0iaHR0cDovL3d3dy53My5vcmcvMTk5OS94bGluayIgeG1sbnM9Imh0dHA6Ly93d3cudzMub3JnLzIwMDAvc3ZnIiB2aWV3Qm94PSIwIDAgNDEyLjM4IDIwNCIgZGF0YS1uYW1lPSJMYXllciAxIiBpZD0iTGF5ZXJfMSI+PGRlZnM+PHN0eWxlPi5jbHMtMSwuY2xzLTJ7ZmlsbC1ydWxlOmV2ZW5vZGQ7fS5jbHMtMXtmaWxsOnVybCgjbGluZWFyLWdyYWRpZW50KTt9LmNscy0ye2ZpbGw6I2ZmZjt9PC9zdHlsZT48bGluZWFyR3JhZGllbnQgZ3JhZGllbnRVbml0cz0idXNlclNwYWNlT25Vc2UiIHkyPSIyMDQiIHgyPSIyMDYuMTkiIHgxPSIyMDYuMTkiIGlkPSJsaW5lYXItZ3JhZGllbnQiPjxzdG9wIHN0b3AtY29sb3I9IiMwMGI4ZjEiIG9mZnNldD0iMCIvPjxzdG9wIHN0b3AtY29sb3I9IiMwMWI2ZjAiIG9mZnNldD0iMC4wMiIvPjxzdG9wIHN0b3AtY29sb3I9IiMwZDkwZDkiIG9mZnNldD0iMC4zMSIvPjxzdG9wIHN0b3AtY29sb3I9IiMxNzc1YzgiIG9mZnNldD0iMC41OCIvPjxzdG9wIHN0b3AtY29sb3I9IiMxYzY1YmYiIG9mZnNldD0iMC44MiIvPjxzdG9wIHN0b3AtY29sb3I9IiMxZTVmYmIiIG9mZnNldD0iMSIvPjwvbGluZWFyR3JhZGllbnQ+PC9kZWZzPjx0aXRsZT5TQVBfZ3JhZF9SX3Njcm5fWmVpY2hlbmZsw6RjaGUgMTwvdGl0bGU+PHBvbHlsaW5lIHBvaW50cz0iMCAyMDQgMjA4LjQxIDIwNCA0MTIuMzggMCAwIDAgMCAyMDQiIGNsYXNzPSJjbHMtMSIvPjxwYXRoIGQ9Ik0yNDQuNzMsMzguMzZsLTQwLjYsMHY5Ni41MkwxNjguNjcsMzguMzNIMTMzLjUxbC0zMC4yNyw4MC43MkMxMDAsOTguNyw3OSw5MS42Nyw2Mi40LDg2LjQsNTEuNDYsODIuODksMzkuODUsNzcuNzIsNDAsNzJjLjA5LTQuNjgsNi4yMy05LDE4LjM4LTguMzgsOC4xNy40MywxNS4zNywxLjA5LDI5LjcxLDhsMTQuMS0yNC41NUM4OS4wNiw0MC40Miw3MSwzNi4yMSw1Ni4xNywzNi4xOWgtLjA5Yy0xNy4yOCwwLTMxLjY4LDUuNi00MC42LDE0LjgzQTM0LjIzLDM0LjIzLDAsMCwwLDUuNzcsNzQuN0M1LjU0LDg3LjE1LDEwLjExLDk2LDE5LjcxLDEwM2M4LjEsNS45NCwxOC40Niw5Ljc5LDI3LjYsMTIuNjIsMTEuMjcsMy40OSwyMC40Nyw2LjUzLDIwLjM2LDEzQTkuNTcsOS41NywwLDAsMSw2NSwxMzVjLTIuODEsMi45LTcuMTMsNC0xMy4wOSw0LjEtMTEuNDkuMjQtMjAtMS41Ni0zMy42MS05LjU5TDUuNzcsMTU0LjQyYTkzLjc3LDkzLjc3LDAsMCwwLDQ2LDEyLjIybDIuMTEsMGMxNC4yNC0uMjUsMjUuNzQtNC4zMSwzNC45Mi0xMS43MS41My0uNDEsMS0uODQsMS40OS0xLjI4TDg2LjE3LDE2NC41SDEyM2w2LjE5LTE4LjgyYTY3LjQ2LDY3LjQ2LDAsMCwwLDIxLjY4LDMuNDMsNjguMzMsNjguMzMsMCwwLDAsMjEuMTYtMy4yNWw2LDE4LjY0aDYwLjE0di0zOWgxMy4xMWMzMS43MSwwLDUwLjQ2LTE2LjE1LDUwLjQ2LTQzLjJDMzAxLjc0LDUyLjE5LDI4My41MiwzOC4zNiwyNDQuNzMsMzguMzZaTTE1MC45MSwxMjFhMzYuOTMsMzYuOTMsMCwwLDEtMTMtMi4yOGwxMi44Ny00MC41OUgxNTFsMTIuNjUsNDAuNzFBMzguNSwzOC41LDAsMCwxLDE1MC45MSwxMjFabTk2LjItMjMuMzNoLTguOTRWNjQuOTFoOC45NGMxMS45MywwLDIxLjQ0LDQsMjEuNDQsMTYuMTQsMCwxMi42LTkuNTEsMTYuNTctMjEuNDQsMTYuNTciIGNsYXNzPSJjbHMtMiIvPjwvc3ZnPg==;" vertex="1" parent="9l524XbITH2KFDObZAWD-24">
          <mxGeometry x="21.1431428571428" y="55.73000000000002" width="37.46" height="18.55" as="geometry" />
        </mxCell>
        <mxCell id="9l524XbITH2KFDObZAWD-9" value="&lt;font color=&quot;#0070f2&quot; face=&quot;arial&quot; style=&quot;font-size: 16px;&quot;&gt;&lt;b style=&quot;font-size: 16px;&quot;&gt;HANA&lt;/b&gt;&lt;/font&gt;" style="text;html=1;align=left;verticalAlign=middle;resizable=0;points=[];autosize=1;strokeColor=none;fillColor=none;fontSize=12;fontColor=#1d2d3e;fontFamily=Helvetica;" vertex="1" parent="9l524XbITH2KFDObZAWD-24">
          <mxGeometry x="58.6" y="50.00000000000023" width="70" height="30" as="geometry" />
        </mxCell>
        <mxCell id="9l524XbITH2KFDObZAWD-32" style="edgeStyle=orthogonalEdgeStyle;rounded=0;orthogonalLoop=1;jettySize=auto;html=1;strokeWidth=3;strokeColor=#c54949;" edge="1" parent="1">
          <mxGeometry relative="1" as="geometry">
            <mxPoint x="220" y="160" as="targetPoint" />
            <mxPoint x="220" y="278" as="sourcePoint" />
            <Array as="points">
              <mxPoint x="220" y="200" />
              <mxPoint x="221" y="200" />
            </Array>
          </mxGeometry>
        </mxCell>
        <mxCell id="9l524XbITH2KFDObZAWD-34" style="edgeStyle=orthogonalEdgeStyle;rounded=0;orthogonalLoop=1;jettySize=auto;html=1;strokeColor=#33FF33;strokeWidth=4;" edge="1" parent="1">
          <mxGeometry relative="1" as="geometry">
            <mxPoint x="180" y="160" as="targetPoint" />
            <mxPoint x="205" y="278" as="sourcePoint" />
            <Array as="points">
              <mxPoint x="205" y="220" />
              <mxPoint x="181" y="220" />
            </Array>
          </mxGeometry>
        </mxCell>
        <mxCell id="9l524XbITH2KFDObZAWD-35" style="edgeStyle=orthogonalEdgeStyle;rounded=0;orthogonalLoop=1;jettySize=auto;html=1;strokeColor=#3d1aea;strokeWidth=3;" edge="1" parent="1" source="9l524XbITH2KFDObZAWD-22">
          <mxGeometry relative="1" as="geometry">
            <mxPoint x="259.5" y="160" as="targetPoint" />
            <mxPoint x="250" y="279" as="sourcePoint" />
            <Array as="points">
              <mxPoint x="240" y="220" />
              <mxPoint x="260" y="220" />
            </Array>
          </mxGeometry>
        </mxCell>
        <mxCell id="9l524XbITH2KFDObZAWD-22" value="" style="shape=mxgraph.sap.icon;labelPosition=center;verticalLabelPosition=bottom;align=center;verticalAlign=top;strokeWidth=1;strokeColor=#D5DADD;fillColor=#EDEFF0;gradientColor=#FCFCFC;gradientDirection=west;aspect=fixed;SAPIcon=Business_Application_Studio" vertex="1" parent="1">
          <mxGeometry x="200" y="278" width="50" height="50" as="geometry" />
        </mxCell>
        <mxCell id="9l524XbITH2KFDObZAWD-23" value="" style="shape=image;verticalLabelPosition=bottom;verticalAlign=top;imageAspect=0;aspect=fixed;image=data:image/svg+xml,PHN2ZyB4bWxucz0iaHR0cDovL3d3dy53My5vcmcvMjAwMC9zdmciIGZpbGw9Im5vbmUiIHZpZXdCb3g9IjAgMCAxNyAxNyIgaGVpZ2h0PSIxNyIgd2lkdGg9IjE3Ij4mI3hhOzxwYXRoIGZpbGw9InVybCgjcGFpbnQwX2xpbmVhcl8yXzI4ODUyKSIgZD0iTTAuMjEzODY3IDguNTUyNzNDMC4yMTM4NjcgNy40Njk0IDAuNDIyMjAxIDYuNDU4OTggMC44Mzg4NjcgNS41MjE0OEMxLjI1NTUzIDQuNTYzMTUgMS44MTgwMyAzLjcyOTgyIDIuNTI2MzcgMy4wMjE0OEMzLjIzNDcgMi4zMTMxNSA0LjA2ODAzIDEuNzUwNjUgNS4wMjYzNyAxLjMzMzk4QzUuOTg0NyAwLjkxNzMxOCA3LjAwNTUzIDAuNzA4OTg0IDguMDg4ODcgMC43MDg5ODRDOS4xNzIyIDAuNzA4OTg0IDEwLjE4MjYgMC45MTczMTggMTEuMTIwMSAxLjMzMzk4QzEyLjA3ODUgMS43NTA2NSAxMi45MTE4IDIuMzEzMTUgMTMuNjIwMSAzLjAyMTQ4QzE0LjMyODUgMy43Mjk4MiAxNC44OTEgNC41NjMxNSAxNS4zMDc2IDUuNTIxNDhDMTUuNzI0MyA2LjQ1ODk4IDE1LjkzMjYgNy40Njk0IDE1LjkzMjYgOC41NTI3M0MxNS45MzI2IDkuNjM2MDcgMTUuNzI0MyAxMC42NTY5IDE1LjMwNzYgMTEuNjE1MkMxNC44OTEgMTIuNTczNiAxNC4zMjg1IDEzLjQwNjkgMTMuNjIwMSAxNC4xMTUyQzEyLjkxMTggMTQuODIzNiAxMi4wNzg1IDE1LjM4NjEgMTEuMTIwMSAxNS44MDI3QzEwLjE4MjYgMTYuMjE5NCA5LjE3MjIgMTYuNDI3NyA4LjA4ODg3IDE2LjQyNzdDNy4wMDU1MyAxNi40Mjc3IDUuOTg0NyAxNi4yMTk0IDUuMDI2MzcgMTUuODAyN0M0LjA2ODAzIDE1LjM4NjEgMy4yMzQ3IDE0LjgyMzYgMi41MjYzNyAxNC4xMTUyQzEuODE4MDMgMTMuNDA2OSAxLjI1NTUzIDEyLjU3MzYgMC44Mzg4NjcgMTEuNjE1MkMwLjQyMjIwMSAxMC42NTY5IDAuMjEzODY3IDkuNjM2MDcgMC4yMTM4NjcgOC41NTI3M1pNOS42NTEzNyAxMC45Mjc3QzEwLjMxOCAxMC45Mjc3IDEwLjkzMjYgMTEuMDg0IDExLjQ5NTEgMTEuMzk2NUMxMi4wNTc2IDExLjY4ODIgMTIuNTE2IDEyLjA5NDQgMTIuODcwMSAxMi42MTUyQzEzLjM0OTMgMTIuMDczNiAxMy43MTM5IDExLjQ1OSAxMy45NjM5IDEwLjc3MTVDMTQuMjM0NyAxMC4wODQgMTQuMzcwMSA5LjM0NDQgMTQuMzcwMSA4LjU1MjczQzE0LjM3MDEgNy42Nzc3MyAxNC4yMDM1IDYuODY1MjMgMTMuODcwMSA2LjExNTIzQzEzLjUzNjggNS4zNDQ0IDEzLjA4ODkgNC42Nzc3MyAxMi41MjY0IDQuMTE1MjNDMTEuOTYzOSAzLjU1MjczIDExLjI5NzIgMy4xMDQ4MiAxMC41MjY0IDIuNzcxNDhDOS43NzYzNyAyLjQzODE1IDguOTYzODcgMi4yNzE0OCA4LjA4ODg3IDIuMjcxNDhDNy4yMTM4NyAyLjI3MTQ4IDYuMzkwOTUgMi40MzgxNSA1LjYyMDEyIDIuNzcxNDhDNC44NzAxMiAzLjEwNDgyIDQuMjAzNDUgMy41NTI3MyAzLjYyMDEyIDQuMTE1MjNDMy4wNTc2MiA0LjY3NzczIDIuNjA5NyA1LjM0NDQgMi4yNzYzNyA2LjExNTIzQzEuOTQzMDMgNi44NjUyMyAxLjc3NjM3IDcuNjc3NzMgMS43NzYzNyA4LjU1MjczQzEuNzc2MzcgOS4zNDQ0IDEuOTAxMzcgMTAuMDg0IDIuMTUxMzcgMTAuNzcxNUMyLjQyMjIgMTEuNDU5IDIuNzk3MiAxMi4wNzM2IDMuMjc2MzcgMTIuNjE1MkMzLjYzMDUzIDEyLjA5NDQgNC4wODg4NyAxMS42ODgyIDQuNjUxMzcgMTEuMzk2NUM1LjIxMzg3IDExLjA4NCA1LjgyODQ1IDEwLjkyNzcgNi40OTUxMiAxMC45Mjc3SDkuNjUxMzdaTTExLjIxMzkgNi45OTAyM0MxMS4yMTM5IDcuNDI3NzMgMTEuMTMwNSA3Ljg0NDQgMTAuOTYzOSA4LjI0MDIzQzEwLjc5NzIgOC42MTUyMyAxMC41NjggOC45NDg1NyAxMC4yNzY0IDkuMjQwMjNDMTAuMDA1NSA5LjUxMTA3IDkuNjgyNjIgOS43Mjk4MiA5LjMwNzYyIDkuODk2NDhDOC45MzI2MiAxMC4wNjMyIDguNTI2MzcgMTAuMTQ2NSA4LjA4ODg3IDEwLjE0NjVDNy42NTEzNyAxMC4xNDY1IDcuMjM0NyAxMC4wNjMyIDYuODM4ODcgOS44OTY0OEM2LjQ2Mzg3IDkuNzI5ODIgNi4xMzA1MyA5LjUxMTA3IDUuODM4ODcgOS4yNDAyM0M1LjU2ODAzIDguOTQ4NTcgNS4zNDkyOCA4LjYxNTIzIDUuMTgyNjIgOC4yNDAyM0M1LjAxNTk1IDcuODQ0NCA0LjkzMjYyIDcuNDI3NzMgNC45MzI2MiA2Ljk5MDIzQzQuOTMyNjIgNi41NTI3MyA1LjAxNTk1IDYuMTQ2NDggNS4xODI2MiA1Ljc3MTQ4QzUuMzQ5MjggNS4zOTY0OCA1LjU2ODAzIDUuMDYzMTUgNS44Mzg4NyA0Ljc3MTQ4QzYuMTMwNTMgNC40Nzk4MiA2LjQ2Mzg3IDQuMjUwNjUgNi44Mzg4NyA0LjA4Mzk4QzcuMjM0NyAzLjkxNzMyIDcuNjUxMzcgMy44MzM5OCA4LjA4ODg3IDMuODMzOThDOC41MjYzNyAzLjgzMzk4IDguOTMyNjIgMy45MTczMiA5LjMwNzYyIDQuMDgzOThDOS42ODI2MiA0LjI1MDY1IDEwLjAwNTUgNC40Nzk4MiAxMC4yNzY0IDQuNzcxNDhDMTAuNTY4IDUuMDYzMTUgMTAuNzk3MiA1LjM5NjQ4IDEwLjk2MzkgNS43NzE0OEMxMS4xMzA1IDYuMTQ2NDggMTEuMjEzOSA2LjU1MjczIDExLjIxMzkgNi45OTAyM1pNOS42NTEzNyA2Ljk5MDIzQzkuNjUxMzcgNi41NTI3MyA5LjQ5NTEyIDYuMTg4MTUgOS4xODI2MiA1Ljg5NjQ4QzguODcwMTIgNS41ODM5OCA4LjUwNTUzIDUuNDI3NzMgOC4wODg4NyA1LjQyNzczQzcuNjUxMzcgNS40Mjc3MyA3LjI3NjM3IDUuNTgzOTggNi45NjM4NyA1Ljg5NjQ4QzYuNjUxMzcgNi4xODgxNSA2LjQ5NTEyIDYuNTUyNzMgNi40OTUxMiA2Ljk5MDIzQzYuNDk1MTIgNy40Mjc3MyA2LjY1MTM3IDcuODAyNzMgNi45NjM4NyA4LjExNTIzQzcuMjc2MzcgOC40MDY5IDcuNjUxMzcgOC41NTI3MyA4LjA4ODg3IDguNTUyNzNDOC41MDU1MyA4LjU1MjczIDguODcwMTIgOC40MDY5IDkuMTgyNjIgOC4xMTUyM0M5LjQ5NTEyIDcuODAyNzMgOS42NTEzNyA3LjQyNzczIDkuNjUxMzcgNi45OTAyM1pNNC40NjM4NyAxMy43MDlDNC45NjM4NyAxNC4wNjMyIDUuNTE1OTUgMTQuMzQ0NCA2LjEyMDEyIDE0LjU1MjdDNi43NDUxMiAxNC43NjExIDcuNDAxMzcgMTQuODY1MiA4LjA4ODg3IDE0Ljg2NTJDOC43NTU1MyAxNC44NjUyIDkuMzkwOTUgMTQuNzYxMSA5Ljk5NTEyIDE0LjU1MjdDMTAuNjIwMSAxNC4zNDQ0IDExLjE4MjYgMTQuMDYzMiAxMS42ODI2IDEzLjcwOUMxMS40NzQzIDEzLjMzNCAxMS4xODI2IDEzLjA0MjMgMTAuODA3NiAxMi44MzRDMTAuNDUzNSAxMi42MDQ4IDEwLjA2OCAxMi40OTAyIDkuNjUxMzcgMTIuNDkwMkg2LjQ5NTEyQzYuMDc4NDUgMTIuNDkwMiA1LjY4MjYyIDEyLjYwNDggNS4zMDc2MiAxMi44MzRDNC45NTM0NSAxMy4wNDIzIDQuNjcyMiAxMy4zMzQgNC40NjM4NyAxMy43MDlaIi8+JiN4YTs8ZGVmcz4mI3hhOzxsaW5lYXJHcmFkaWVudCBncmFkaWVudFVuaXRzPSJ1c2VyU3BhY2VPblVzZSIgeTI9IjE1LjE5NzgiIHgyPSIxMy42NjE0IiB5MT0iMi45NDAwMSIgeDE9IjEuNjM5MzIiIGlkPSJwYWludDBfbGluZWFyXzJfMjg4NTIiPiYjeGE7PHN0b3Agc3RvcC1jb2xvcj0iIzlCNzZGRiIvPiYjeGE7PHN0b3Agc3RvcC1jb2xvcj0iIzQ3MENFRCIgb2Zmc2V0PSIxIi8+JiN4YTs8L2xpbmVhckdyYWRpZW50PiYjeGE7PC9kZWZzPiYjeGE7PC9zdmc+" vertex="1" parent="1">
          <mxGeometry x="30" y="279.99999999999994" width="48" height="48" as="geometry" />
        </mxCell>
        <mxCell id="9l524XbITH2KFDObZAWD-25" value="&lt;p style=&quot;line-height: 114%;&quot;&gt;&lt;font color=&quot;#188918&quot; size=&quot;1&quot;&gt;&lt;b style=&quot;&quot;&gt;Reconcile Code&lt;/b&gt;&lt;/font&gt;&lt;/p&gt;" style="rounded=1;whiteSpace=wrap;html=1;arcSize=50;strokeColor=#188918;fillColor=#f5fae5;fontColor=#266f3a;strokeWidth=1.5;" vertex="1" parent="1">
          <mxGeometry x="90" y="296" width="90" height="16" as="geometry" />
        </mxCell>
        <mxCell id="9l524XbITH2KFDObZAWD-26" value="" style="endArrow=none;html=1;rounded=0;entryX=0;entryY=0.5;entryDx=0;entryDy=0;strokeColor=#178b1b;strokeWidth=1.5;" edge="1" target="9l524XbITH2KFDObZAWD-25" parent="1">
          <mxGeometry width="50" height="50" relative="1" as="geometry">
            <mxPoint x="75" y="304" as="sourcePoint" />
            <mxPoint x="135" y="294" as="targetPoint" />
          </mxGeometry>
        </mxCell>
        <mxCell id="9l524XbITH2KFDObZAWD-27" value="" style="endArrow=blockThin;html=1;rounded=0;entryX=0;entryY=0.5;entryDx=0;entryDy=0;strokeColor=#178b1b;strokeWidth=1.5;exitX=1.015;exitY=0.505;exitDx=0;exitDy=0;exitPerimeter=0;endFill=1;endSize=4;startSize=4;" edge="1" source="9l524XbITH2KFDObZAWD-25" parent="1">
          <mxGeometry width="50" height="50" relative="1" as="geometry">
            <mxPoint x="160" y="303.95" as="sourcePoint" />
            <mxPoint x="200" y="303.95" as="targetPoint" />
          </mxGeometry>
        </mxCell>
        <mxCell id="9l524XbITH2KFDObZAWD-33" style="edgeStyle=orthogonalEdgeStyle;rounded=0;orthogonalLoop=1;jettySize=auto;html=1;entryX=0.5;entryY=0;entryDx=0;entryDy=0;strokeColor=#33ff33;strokeWidth=3;dashed=1;" edge="1" parent="1" source="9l524XbITH2KFDObZAWD-28" target="9l524XbITH2KFDObZAWD-5">
          <mxGeometry relative="1" as="geometry" />
        </mxCell>
        <mxCell id="9l524XbITH2KFDObZAWD-36" style="edgeStyle=orthogonalEdgeStyle;rounded=0;orthogonalLoop=1;jettySize=auto;html=1;entryX=0.5;entryY=0;entryDx=0;entryDy=0;strokeColor=#c54949;strokeWidth=4;dashed=1;" edge="1" parent="1" target="9l524XbITH2KFDObZAWD-16">
          <mxGeometry relative="1" as="geometry">
            <mxPoint x="260" y="90" as="sourcePoint" />
            <mxPoint x="625" y="245" as="targetPoint" />
          </mxGeometry>
        </mxCell>
        <mxCell id="9l524XbITH2KFDObZAWD-37" style="edgeStyle=orthogonalEdgeStyle;rounded=0;orthogonalLoop=1;jettySize=auto;html=1;entryX=0.5;entryY=0;entryDx=0;entryDy=0;strokeColor=#3d1aea;strokeWidth=3;dashed=1;" edge="1" parent="1" target="9l524XbITH2KFDObZAWD-12">
          <mxGeometry relative="1" as="geometry">
            <mxPoint x="260" y="70" as="sourcePoint" />
            <mxPoint x="879.997142857143" y="225" as="targetPoint" />
          </mxGeometry>
        </mxCell>
        <mxCell id="9l524XbITH2KFDObZAWD-28" value="" style="shape=image;html=1;verticalAlign=top;verticalLabelPosition=bottom;labelBackgroundColor=#ffffff;imageAspect=0;aspect=fixed;image=https://cdn4.iconfinder.com/data/icons/socialcones/508/Gitlab-128.png" vertex="1" parent="1">
          <mxGeometry x="190" y="70" width="70" height="70" as="geometry" />
        </mxCell>
        <mxCell id="9l524XbITH2KFDObZAWD-38" value="" style="endArrow=blockThin;html=1;strokeColor=#d20a0a;bendable=1;rounded=0;endFill=1;endSize=4;strokeWidth=3;startSize=4;startArrow=none;startFill=0;" edge="1" parent="1">
          <mxGeometry width="50" height="50" relative="1" as="geometry">
            <mxPoint x="220" y="450" as="sourcePoint" />
            <mxPoint x="215.88235294117658" y="380" as="targetPoint" />
            <Array as="points" />
          </mxGeometry>
        </mxCell>
        <mxCell id="9l524XbITH2KFDObZAWD-40" value="&lt;font style=&quot;font-size: 12px;&quot; face=&quot;Arial&quot; color=&quot;#1a2733&quot;&gt;&lt;b&gt;develop&lt;/b&gt;&lt;/font&gt;" style="text;html=1;align=center;verticalAlign=middle;resizable=0;points=[];autosize=1;strokeColor=none;fillColor=none;fontSize=16;fontFamily=Helvetica;fontColor=default;" vertex="1" parent="1">
          <mxGeometry x="133" y="140" width="70" height="30" as="geometry" />
        </mxCell>
        <mxCell id="9l524XbITH2KFDObZAWD-41" value="&lt;font style=&quot;font-size: 12px;&quot; face=&quot;Arial&quot; color=&quot;#1a2733&quot;&gt;&lt;b&gt;release&lt;/b&gt;&lt;/font&gt;" style="text;html=1;align=center;verticalAlign=middle;resizable=0;points=[];autosize=1;strokeColor=none;fillColor=none;fontSize=16;fontFamily=Helvetica;fontColor=default;" vertex="1" parent="1">
          <mxGeometry x="191" y="141" width="60" height="30" as="geometry" />
        </mxCell>
        <mxCell id="9l524XbITH2KFDObZAWD-42" value="&lt;font style=&quot;font-size: 12px;&quot; face=&quot;Arial&quot; color=&quot;#1a2733&quot;&gt;&lt;b&gt;master&lt;/b&gt;&lt;/font&gt;" style="text;html=1;align=center;verticalAlign=middle;resizable=0;points=[];autosize=1;strokeColor=none;fillColor=none;fontSize=16;fontFamily=Helvetica;fontColor=default;" vertex="1" parent="1">
          <mxGeometry x="238" y="140" width="60" height="30" as="geometry" />
        </mxCell>
        <mxCell id="9l524XbITH2KFDObZAWD-43" value="&lt;font color=&quot;#1a2733&quot; face=&quot;Arial&quot; style=&quot;font-size: 16px;&quot;&gt;&lt;b&gt;Merge&lt;/b&gt;&lt;/font&gt;" style="text;html=1;align=center;verticalAlign=middle;resizable=0;points=[];autosize=1;strokeColor=none;fillColor=none;fontSize=16;fontFamily=Helvetica;fontColor=default;" vertex="1" parent="1">
          <mxGeometry x="133.00000000000023" y="220" width="70" height="30" as="geometry" />
        </mxCell>
        <mxCell id="9l524XbITH2KFDObZAWD-44" value="&lt;font color=&quot;#1a2733&quot; face=&quot;Arial&quot; style=&quot;font-size: 16px;&quot;&gt;&lt;b&gt;Gitlab&lt;/b&gt;&lt;/font&gt;" style="text;html=1;align=center;verticalAlign=middle;resizable=0;points=[];autosize=1;strokeColor=none;fillColor=none;fontSize=16;fontFamily=Helvetica;fontColor=default;" vertex="1" parent="1">
          <mxGeometry x="180.00000000000023" y="50" width="70" height="30" as="geometry" />
        </mxCell>
      </root>
    </mxGraphModel>
  </diagram>
</mxfile>
